<?xml version="1.0" encoding="UTF-8"?>
<svg version="1.1" xmlns="http://www.w3.org/2000/svg" width="1024" height="1024">
<path d="M0 0 C337.92 0 675.84 0 1024 0 C1024 337.92 1024 675.84 1024 1024 C686.08 1024 348.16 1024 0 1024 C0 686.08 0 348.16 0 0 Z " fill="#FDFEFE" transform="translate(0,0)"/>
<path d="M0 0 C56.1825 -0.0309375 56.1825 -0.0309375 113.5 -0.0625 C131.21461914 -0.07615601 131.21461914 -0.07615601 149.28710938 -0.09008789 C163.75097656 -0.09460449 163.75097656 -0.09460449 170.53039551 -0.09544373 C175.24719721 -0.09637225 179.96398755 -0.10010731 184.68078613 -0.10557556 C190.71201654 -0.11247419 196.74323062 -0.11448385 202.77446461 -0.11307228 C204.97875974 -0.11336711 207.1830555 -0.11532647 209.38734722 -0.11921513 C225.40387708 -0.14613991 241.2171068 -0.07885985 257 3 C257 3.66 257 4.32 257 5 C258.27230469 5.02126953 258.27230469 5.02126953 259.5703125 5.04296875 C268.99614071 5.42621671 276.30934757 7.42071914 285 11 C285 11.66 285 12.32 285 13 C285.969375 13.0825 286.93875 13.165 287.9375 13.25 C292.67119101 13.8999125 296.73984407 15.92305323 301 18 C301 18.66 301 19.32 301 20 C301.72445313 20.28488281 302.44890625 20.56976563 303.1953125 20.86328125 C310.24156164 23.71907303 316.09452156 26.54756543 321.296875 32.1875 C323.05929964 34.06310788 324.91501318 35.70823955 326.875 37.375 C334.59726957 44.09457178 341.49265327 50.64946501 346 60 C346 60.66 346 61.32 346 62 C346.66 62 347.32 62 348 62 C352.12011843 69.6306851 355.50098048 76.6886447 357.32421875 85.234375 C357.9686785 87.87181721 358.85527433 90.04762891 360 92.5 C369.58742728 116.17357045 368.36215577 154.84099305 361 179 C360.34 179 359.68 179 359 179 C358.9175 180.11375 358.835 181.2275 358.75 182.375 C358.05737736 187.67587193 356.205111 192.15640358 354 197 C353.72768555 197.60972656 353.45537109 198.21945312 353.17480469 198.84765625 C348.92826781 208.25168808 344.34646073 215.62701776 337 223 C335.75991386 224.40711815 334.5300156 225.82330771 333.3125 227.25 C330.33551107 230.6562292 327.31406922 233.91714491 324 237 C323.34 237 322.68 237 322 237 C322 237.66 322 238.32 322 239 C317.52941176 243 317.52941176 243 315 243 C315 243.66 315 244.32 315 245 C308.25 249 308.25 249 306 249 C306 249.66 306 250.32 306 251 C298.77137274 254.45231194 291.66795502 257.66062389 284 260 C284.6234871 263.04660395 285.62275826 265.30359139 287.2578125 267.94140625 C287.71534912 268.68479248 288.17288574 269.42817871 288.64428711 270.1940918 C289.13292236 270.9756665 289.62155762 271.75724121 290.125 272.5625 C290.62201416 273.3666333 291.11902832 274.1707666 291.63110352 274.99926758 C294.89821655 280.27316255 298.22383257 285.50809673 301.56640625 290.734375 C307.33654267 299.85339168 307.33654267 299.85339168 308 304 C308.66 304 309.32 304 310 304 C311.38525391 305.92089844 311.38525391 305.92089844 312.9765625 308.609375 C313.56155518 309.58664551 314.14654785 310.56391602 314.74926758 311.57080078 C315.36825928 312.61993652 315.98725098 313.66907227 316.625 314.75 C321.09214289 322.23245003 325.58470336 329.59644949 330.64453125 336.6953125 C332.09339703 339.15880186 332.61421693 341.18428457 333 344 C333.66 344 334.32 344 335 344 C335.67154933 345.28913487 336.33708859 346.58140204 337 347.875 C337.37125 348.59429688 337.7425 349.31359375 338.125 350.0546875 C339 352 339 352 339 354 C339.66 354 340.32 354 341 354 C344.73695244 358.57776674 346.71065782 362.25656667 348 368 C348.66 368 349.32 368 350 368 C351.69140625 370.23046875 351.69140625 370.23046875 353.5625 373.1875 C354.18253906 374.15042969 354.80257813 375.11335938 355.44140625 376.10546875 C356.91166708 378.83595315 357.59289154 380.949475 358 384 C358.66 384 359.32 384 360 384 C361.44963959 385.90374355 362.81184323 387.87467159 364.125 389.875 C364.84945313 390.96554687 365.57390625 392.05609375 366.3203125 393.1796875 C368 396 368 396 368 398 C324.77 398 281.54 398 237 398 C234 392 234 392 234 390 C233.34 390 232.68 390 232 390 C232 389.01 232 388.02 232 387 C231.34 387 230.68 387 230 387 C229.01 383.535 229.01 383.535 228 380 C227.34 380 226.68 380 226 380 C223 374.375 223 374.375 223 371 C222.01 370.67 221.02 370.34 220 370 C220 368.68 220 367.36 220 366 C219.34 366 218.68 366 218 366 C217.38125 364.71029297 217.38125 364.71029297 216.75 363.39453125 C213.15827753 356.04272432 209.29391032 349.06070822 204.93359375 342.125 C197 329.3030303 197 329.3030303 197 326 C196.34 326 195.68 326 195 326 C194.6596875 324.9790625 194.6596875 324.9790625 194.3125 323.9375 C193.0712576 320.87276119 193.0712576 320.87276119 190.8125 318.0625 C188.16652026 314.49755724 186.1689923 310.64696328 184.1875 306.6875 C183.87337158 306.06431885 183.55924316 305.4411377 183.2355957 304.79907227 C181 300.2590456 181 300.2590456 181 298 C180.01 297.67 179.02 297.34 178 297 C176.95281202 294.68745988 175.95653635 292.3514852 175 290 C174.53464844 289.38640625 174.06929687 288.7728125 173.58984375 288.140625 C171.04051556 284.70811431 169.42386651 280.82474242 167.59765625 276.97265625 C166.08459204 273.94262584 166.08459204 273.94262584 163.88671875 271.359375 C161.40415331 268.25488322 160.89935238 265.82224763 160 262 C159.34 262 158.68 262 158 262 C156.5393715 259.35261084 156 258.10551666 156 255 C155.01 254.67 154.02 254.34 153 254 C152.21531054 252.29983951 151.43919097 250.59331218 150.76171875 248.84765625 C149.96301848 246.78022994 149.96301848 246.78022994 148.3125 244.1875 C147 242 147 242 147 240 C146.34 240 145.68 240 145 240 C142.31542587 235.10878728 139.63624264 230.21541252 137.03125 225.28125 C133.2166336 218.05753333 129.31220763 210.94338516 125 204 C124.52304687 203.22398437 124.04609375 202.44796875 123.5546875 201.6484375 C121.52415725 198.13633911 121.52415725 198.13633911 119 195 C118.67 261.99 118.34 328.98 118 398 C79.06 398 40.12 398 0 398 C0 266.66 0 135.32 0 0 Z " fill="#010101" transform="translate(150,311)"/>
<path d="M0 0 C37.0425 -0.04125 74.085 -0.0825 112.25 -0.125 C129.75337402 -0.15231201 129.75337402 -0.15231201 147.61035156 -0.18017578 C161.92919922 -0.18920898 161.92919922 -0.18920898 168.64593506 -0.19088745 C173.30757577 -0.19274047 177.9691703 -0.20019426 182.63079834 -0.21115112 C188.59902237 -0.22499064 194.5671804 -0.22896008 200.53541899 -0.22614455 C202.71198888 -0.22673226 204.88856138 -0.23062564 207.06511736 -0.23843026 C224.04263136 -0.29642079 240.71357768 0.83454211 257.5 3.4375 C258.31823242 3.56165283 259.13646484 3.68580566 259.97949219 3.8137207 C266.4311204 4.82934911 272.71717543 6.19943442 279 8 C279 8.66 279 9.32 279 10 C279.99 10.0825 280.98 10.165 282 10.25 C285.68760946 10.78101576 288.48617564 12.06985969 291.74609375 13.82421875 C295.26971902 15.66236642 298.93256529 17.18396673 302.58203125 18.75390625 C304.9084766 19.95283366 306.22137797 21.12803921 308 23 C308.86625 23.33 309.7325 23.66 310.625 24 C311.40875 24.33 312.1925 24.66 313 25 C313.33 25.99 313.66 26.98 314 28 C316.01508358 28.73323796 316.01508358 28.73323796 318 29 C318 29.66 318 30.32 318 31 C318.5878125 31.27199219 319.175625 31.54398437 319.78125 31.82421875 C325.27146489 34.733646 329.18288269 39.19782016 333 44 C333.92941406 44.72703125 334.85882812 45.4540625 335.81640625 46.203125 C339.30681033 49.06507618 341.52842864 52.36833539 343.875 56.1875 C344.2771875 56.81591797 344.679375 57.44433594 345.09375 58.09179688 C348 62.71312978 348 62.71312978 348 65 C348.66 65 349.32 65 350 65 C351.76462683 68.08809695 352 69.23312136 352 73 C352.66 73 353.32 73 354 73 C355.30698721 76.43186323 356.59262033 79.87137394 357.875 83.3125 C358.23980469 84.26962891 358.60460937 85.22675781 358.98046875 86.21289062 C361.06832184 91.85009398 362.60718381 97.27667561 363.51220703 103.22338867 C363.98858383 106.19088736 363.98858383 106.19088736 365.03979492 109.7824707 C366.15057741 114.14362253 366.27275727 118.26783211 366.23046875 122.75 C366.23001053 123.56637939 366.22955231 124.38275879 366.2290802 125.22387695 C366.2260759 126.94500184 366.21824471 128.66612444 366.20581055 130.38720703 C366.18774337 132.96527228 366.18530016 135.54297219 366.18554688 138.12109375 C366.17645484 143.08209561 366.10981621 148.04023639 366 153 C365.98468231 153.72514801 365.96936462 154.45029602 365.95358276 155.19741821 C365.69216871 165.12092612 364.05242225 174.17762196 361.1875 183.6875 C360.84396484 184.90888672 360.50042969 186.13027344 360.14648438 187.38867188 C358.44060929 193.22321274 356.97580462 197.33178275 353 202 C352.02192872 203.907239 351.1028985 205.84609512 350.25 207.8125 C349.60804688 209.27623047 349.60804688 209.27623047 348.953125 210.76953125 C348.63859375 211.50558594 348.3240625 212.24164062 348 213 C347.34 213 346.68 213 346 213 C346 213.99 346 214.98 346 216 C345.34 216 344.68 216 344 216 C342.79371992 218.33214148 341.8345262 220.49642139 341 223 C340.34 223 339.68 223 339 223 C338.75765625 223.55816406 338.5153125 224.11632812 338.265625 224.69140625 C334.47952105 231.5975403 328.07261282 237.11228724 322 242 C321.34 242.99 320.68 243.98 320 245 C317.375 245.6875 317.375 245.6875 315 246 C315 246.66 315 247.32 315 248 C313.27473958 248.94401042 311.54947917 249.88802083 309.82421875 250.83203125 C307.9627127 251.92358432 307.9627127 251.92358432 306.58203125 253.4765625 C304.58191557 255.40259982 302.50380254 256.37393897 300 257.5625 C297.15370275 258.9221152 294.63376866 260.24415423 292 262 C281.01325623 265.97795895 269.56300286 269.55064571 258.05078125 271.6015625 C255.74400685 272.01154475 255.74400685 272.01154475 252.5625 273.0625 C244.35170221 275.22323626 235.74102857 275.14636185 227.29614258 275.11352539 C226.27386157 275.11364593 225.25158056 275.11376646 224.19832134 275.11389065 C220.93036819 275.11315174 217.66247403 275.10557072 214.39453125 275.09765625 C212.36047391 275.09618366 210.32641619 275.0951649 208.2923584 275.09460449 C200.79906644 275.08938838 193.30578262 275.07542715 185.8125 275.0625 C169.044375 275.041875 152.27625 275.02125 135 275 C135 239.69 135 204.38 135 168 C166.9375 167.5625 166.9375 167.5625 176.84741211 167.43188477 C189.94353977 167.25080759 203.03888266 167.04172687 216.12890625 166.58984375 C217.11084457 166.56112686 218.0927829 166.53240997 219.10447693 166.50282288 C229.11139381 166.11221127 237.21973208 164.65540991 245 158 C246.54526246 156.0706045 247.7317146 154.13071947 249 152 C249.66 152 250.32 152 251 152 C252.14174072 147.42390318 252.19138927 142.99810336 252.1875 138.3125 C252.1884668 137.11681396 252.1884668 137.11681396 252.18945312 135.89697266 C252.13746523 130.08732484 251.57992393 124.61437253 250 119 C249.34 119 248.68 119 248 119 C246.59765625 117.5390625 246.59765625 117.5390625 245.0625 115.625 C243.08013383 113.16098476 241.69300345 111.79533563 239 110 C239 109.34 239 108.68 239 108 C237.2675 107.814375 237.2675 107.814375 235.5 107.625 C231.13155165 107.15695196 227.39868045 106.09967011 223 105 C187.69 104.67 152.38 104.34 116 104 C116 200.36 116 296.72 116 396 C77.72 396 39.44 396 0 396 C0 265.32 0 134.64 0 0 Z " fill="#010101" transform="translate(528,312)"/>
<path d="M0 0 C25.80333401 -0.08021762 25.80333401 -0.08021762 36.8359375 -0.09765625 C44.35224241 -0.10959332 51.8684984 -0.12368733 59.38476562 -0.15087891 C65.44722148 -0.17267279 71.50962484 -0.18458245 77.57211685 -0.18975449 C79.88046214 -0.19343849 82.1888047 -0.20063236 84.49712753 -0.21146011 C87.74017202 -0.22606194 90.98300194 -0.2279743 94.22607422 -0.22705078 C95.17194901 -0.23424133 96.11782379 -0.24143188 97.09236145 -0.24884033 C104.97424907 -0.22468841 112.77987318 0.63060749 120 4 C120 4.66 120 5.32 120 6 C121.1446875 6.4021875 121.1446875 6.4021875 122.3125 6.8125 C124.88988618 7.95134505 126.26954864 8.81416671 128 11 C128 11.66 128 12.32 128 13 C128.66 13 129.32 13 130 13 C130.33 14.65 130.66 16.3 131 18 C131.66 18 132.32 18 133 18 C133.80954165 20.84666036 134.12828737 23.37973331 134.1328125 26.3359375 C134.13410156 27.15320313 134.13539063 27.97046875 134.13671875 28.8125 C134.13285156 29.658125 134.12898437 30.50375 134.125 31.375 C134.12886719 32.21289062 134.13273438 33.05078125 134.13671875 33.9140625 C134.12968189 38.38950693 133.90387448 42.59540529 133 47 C132.34 47 131.68 47 131 47 C131 47.70125 131 48.4025 131 49.125 C129.44171185 53.60507843 125.99403743 55.642617 122 58 C119 58.875 119 58.875 117 59 C117 59.66 117 60.32 117 61 C110.23573588 63.75079757 104.32426891 64.42068254 97.06420898 64.34057617 C95.48215919 64.34123329 95.48215919 64.34123329 93.8681488 64.34190369 C90.41060337 64.33982742 86.95355361 64.31655096 83.49609375 64.29296875 C81.08757288 64.28736867 78.67904859 64.28310052 76.27052307 64.28010559 C69.95269217 64.26868932 63.63507044 64.23924969 57.31732178 64.20599365 C49.72560702 64.1698068 42.13382204 64.15611632 34.54204559 64.13863373 C23.02788522 64.10961064 11.5141832 64.05210038 0 64 C0 42.88 0 21.76 0 0 Z " fill="#FAFAF9" transform="translate(268,416)"/>
<path d="M0 0 C38.506875 -0.061875 77.01375 -0.12375 116.6875 -0.1875 C134.88201294 -0.22846802 134.88201294 -0.22846802 153.4440918 -0.27026367 C168.32971191 -0.28381348 168.32971191 -0.28381348 175.31257629 -0.28633118 C180.15836259 -0.28911043 185.00404889 -0.30028989 189.84980774 -0.31672668 C196.05415929 -0.33748909 202.25836797 -0.34343959 208.46275103 -0.33921683 C210.72519694 -0.34009826 212.98764847 -0.34593654 215.25006425 -0.35764539 C229.44228507 -0.42761126 243.00635663 0.5947082 257 3 C257 3.33 257 3.66 257 4 C253.29140769 3.86033274 249.5832011 3.71216836 245.875 3.5625 C244.82828125 3.52318359 243.7815625 3.48386719 242.703125 3.44335938 C241.68476562 3.40146484 240.66640625 3.35957031 239.6171875 3.31640625 C238.68503418 3.27974854 237.75288086 3.24309082 236.79248047 3.20532227 C234 3 234 3 231.40917778 2.49705601 C227.13560416 1.87397162 222.9734237 1.84665077 218.66067505 1.84178162 C217.73082291 1.83685196 216.80097076 1.8319223 215.84294128 1.82684326 C212.72228172 1.81148645 209.60164244 1.80311149 206.48095703 1.79467773 C204.20743061 1.78496047 201.93390598 1.77481489 199.66038322 1.76427555 C193.571528 1.73723259 187.48266556 1.71605248 181.39378357 1.69608307 C175.68039427 1.67645796 169.96703278 1.65155045 164.25366211 1.6270752 C147.544129 1.55857374 130.83456198 1.49855544 114.125 1.4375 C76.79375 1.293125 39.4625 1.14875 1 1 C1 131.68 1 262.36 1 397 C39.28 397 77.56 397 117 397 C117 300.64 117 204.28 117 105 C152.31 105 187.62 105 224 105 C224 105.33 224 105.66 224 106 C189.02 106 154.04 106 118 106 C118 202.36 118 298.72 118 398 C79.06 398 40.12 398 0 398 C0 266.66 0 135.32 0 0 Z " fill="#929294" transform="translate(527,311)"/>
<path d="M0 0 C56.1825 -0.0309375 56.1825 -0.0309375 113.5 -0.0625 C131.21461914 -0.07615601 131.21461914 -0.07615601 149.28710938 -0.09008789 C163.75097656 -0.09460449 163.75097656 -0.09460449 170.53039551 -0.09544373 C175.24719721 -0.09637225 179.96398755 -0.10010731 184.68078613 -0.10557556 C190.71201654 -0.11247419 196.74323062 -0.11448385 202.77446461 -0.11307228 C204.97875974 -0.11336711 207.1830555 -0.11532647 209.38734722 -0.11921513 C225.40387708 -0.14613991 241.2171068 -0.07885985 257 3 C257 3.33 257 3.66 257 4 C254.75006641 4.02707139 252.50003905 4.04642829 250.25 4.0625 C248.99703125 4.07410156 247.7440625 4.08570313 246.453125 4.09765625 C243 4 243 4 241.21310425 3.52825069 C228.47558833 0.48790516 213.8158479 1.83129631 200.8046875 1.79467773 C198.58000514 1.78494148 196.35532455 1.77479495 194.13064575 1.76427555 C188.21849673 1.73743632 182.30634042 1.71615003 176.39416504 1.69608307 C170.82916778 1.67633321 165.26419761 1.65148322 159.69921875 1.6270752 C143.46616639 1.55880614 127.23308078 1.49863918 111 1.4375 C74.7 1.293125 38.4 1.14875 1 1 C1 131.68 1 262.36 1 397 C39.28 397 77.56 397 117 397 C117 329.35 117 261.7 117 192 C117.66 192.33 118.32 192.66 119 193 C118.67 260.65 118.34 328.3 118 398 C79.06 398 40.12 398 0 398 C0 266.66 0 135.32 0 0 Z " fill="#646262" transform="translate(150,311)"/>
<path d="M0 0 C29.70752806 -0.06863646 59.41505344 -0.12163106 89.12264387 -0.15319599 C92.6406006 -0.15694751 96.15855717 -0.16083053 99.67651367 -0.16479492 C100.37679024 -0.16558185 101.07706681 -0.16636878 101.79856388 -0.16717956 C113.09435639 -0.18018576 124.39010248 -0.2038128 135.68586757 -0.23145839 C147.30136453 -0.25964656 158.91683464 -0.27598027 170.53236419 -0.28226548 C177.04609934 -0.28615742 183.55972965 -0.29522718 190.07343102 -0.31719017 C196.22032524 -0.33774593 202.3670727 -0.3437957 208.51399803 -0.33932304 C210.75470277 -0.34013979 212.99541307 -0.3459905 215.2360878 -0.35761642 C229.4332004 -0.42758656 243.0015235 0.59387746 257 3 C257 3.33 257 3.66 257 4 C253.29140769 3.86033274 249.5832011 3.71216836 245.875 3.5625 C244.82828125 3.52318359 243.7815625 3.48386719 242.703125 3.44335938 C241.68476562 3.40146484 240.66640625 3.35957031 239.6171875 3.31640625 C238.68503418 3.27974854 237.75288086 3.24309082 236.79248047 3.20532227 C234 3 234 3 231.41155052 2.49705601 C227.12489529 1.87249901 222.94863553 1.84664699 218.62271118 1.84178162 C217.68653469 1.83684364 216.75035821 1.83190566 215.78581274 1.82681805 C212.65359696 1.81147842 209.52140162 1.80309199 206.38916016 1.79467773 C204.14199647 1.78509644 201.89483457 1.7750862 199.64767456 1.76467896 C193.54906228 1.73765115 187.45044228 1.71663005 181.3518033 1.69667697 C174.97763443 1.67480434 168.60348931 1.64742189 162.2293396 1.62062073 C151.53132112 1.57638264 140.8332951 1.53554448 130.13525391 1.49731445 C119.1176661 1.45793318 108.10008916 1.41650068 97.08251953 1.37231445 C96.06333156 1.36822804 96.06333156 1.36822804 95.02355392 1.36405908 C91.61480935 1.35037917 88.20606494 1.33665898 84.7973206 1.32291877 C56.5315697 1.20903524 28.26579509 1.10228052 0 1 C0 0.67 0 0.34 0 0 Z " fill="#8E8E8F" transform="translate(527,311)"/>
<path d="M0 0 C28.90089609 -0.02285856 57.80179129 -0.04053333 86.70269462 -0.05106533 C90.12194617 -0.0523159 93.5411977 -0.05361023 96.96044922 -0.05493164 C97.64110303 -0.05519395 98.32175685 -0.05545626 99.02303654 -0.05572652 C110.01502506 -0.06006676 121.0070083 -0.0679452 131.99899369 -0.0771528 C143.29467442 -0.08653522 154.59035253 -0.09199054 165.88603735 -0.09408849 C172.22351441 -0.09538812 178.56097954 -0.09842643 184.89845276 -0.10573006 C190.8737551 -0.11255996 196.84904067 -0.11460288 202.82434654 -0.11310768 C205.00747964 -0.11338089 207.19061335 -0.1153444 209.37374306 -0.11920547 C225.39481779 -0.14613031 241.21261089 -0.07973689 257 3 C257 3.33 257 3.66 257 4 C254.75006641 4.02707139 252.50003905 4.04642829 250.25 4.0625 C248.99703125 4.07410156 247.7440625 4.08570313 246.453125 4.09765625 C243 4 243 4 241.21274567 3.52825069 C228.44705802 0.480687 213.7521203 1.83115038 200.71289062 1.79467773 C198.51351242 1.78507744 196.31413598 1.77506617 194.11476135 1.76467896 C188.19235539 1.73785664 182.26994163 1.71672566 176.34750938 1.69667697 C170.14022817 1.67467602 163.93297031 1.64735694 157.72570801 1.62062073 C145.99294373 1.57088326 134.26016635 1.52587485 122.52737665 1.48259836 C113.15056652 1.44790155 103.7737675 1.41091768 94.39697266 1.37231445 C93.73507622 1.36959018 93.07317978 1.36686591 92.39122587 1.36405908 C89.070108 1.35037773 85.7489903 1.33665573 82.42787266 1.32291877 C54.95193703 1.20938991 27.47597887 1.10248852 0 1 C0 0.67 0 0.34 0 0 Z " fill="#939293" transform="translate(150,311)"/>
<path d="M0 0 C10.58951156 -0.07014396 21.17896601 -0.123133 31.76866436 -0.15543652 C36.68822747 -0.17095654 41.60762929 -0.19193813 46.52709961 -0.22631836 C51.29284515 -0.25940802 56.05843759 -0.27695506 60.82428932 -0.28463173 C62.62395443 -0.29008781 64.42361314 -0.3007353 66.22321129 -0.31719017 C79.40322207 -0.4326835 92.0001685 0.83333583 105 3 C105 3.33 105 3.66 105 4 C101.29140769 3.86033274 97.5832011 3.71216836 93.875 3.5625 C92.82828125 3.52318359 91.7815625 3.48386719 90.703125 3.44335938 C89.68476562 3.40146484 88.66640625 3.35957031 87.6171875 3.31640625 C86.21895752 3.26141968 86.21895752 3.26141968 84.79248047 3.20532227 C82 3 82 3 79.30407715 2.5 C75.63525549 1.94480388 72.04310992 1.82558825 68.34228516 1.79467773 C67.60013763 1.78477814 66.85799011 1.77487854 66.09335327 1.76467896 C63.6586213 1.73328083 61.22386986 1.70839303 58.7890625 1.68359375 C57.0936942 1.66300545 55.39833082 1.6420085 53.70297241 1.62062073 C49.25445554 1.56559369 44.80589384 1.5160995 40.3572998 1.46777344 C35.81237834 1.41741645 31.26752146 1.3618047 26.72265625 1.30664062 C17.81515943 1.19929617 8.90760638 1.09779916 0 1 C0 0.67 0 0.34 0 0 Z " fill="#7B7A7A" transform="translate(679,311)"/>
<path d="M0 0 C7.54668885 -0.02340034 15.09337383 -0.04105372 22.64009094 -0.05181217 C26.14614158 -0.05698146 29.652167 -0.06396763 33.15820312 -0.07543945 C71.60755942 -0.19776776 71.60755942 -0.19776776 88 3 C88 3.33 88 3.66 88 4 C85.75006641 4.02707139 83.50003905 4.04642829 81.25 4.0625 C79.99703125 4.07410156 78.7440625 4.08570313 77.453125 4.09765625 C74 4 74 4 72.19042969 3.52685547 C57.67807592 0.03625589 40.81135598 1.67554659 26 1.4375 C23.4713485 1.39421006 20.94270258 1.35059282 18.4140625 1.30664062 C12.27610088 1.20065519 6.1380828 1.09870424 0 1 C0 0.67 0 0.34 0 0 Z " fill="#8F8E8F" transform="translate(319,311)"/>
<path d="M0 0 C23.78877436 -0.41277905 23.78877436 -0.41277905 34 2 C34 2.33 34 2.66 34 3 C31.75006641 3.02707139 29.50003905 3.04642829 27.25 3.0625 C25.99703125 3.07410156 24.7440625 3.08570313 23.453125 3.09765625 C20.62659817 3.01772054 18.67716901 2.67831932 16 2 C13.24682026 1.77609683 10.50694671 1.58606338 7.75 1.4375 C7.00492187 1.39431641 6.25984375 1.35113281 5.4921875 1.30664062 C3.661651 1.20103275 1.83084824 1.10005799 0 1 C0 0.67 0 0.34 0 0 Z " fill="#595858" transform="translate(373,312)"/>
<path d="M0 0 C0 4.56915632 -0.31683055 6.22924472 -3.4375 9.75 C-6 12 -6 12 -8 12 C-6.79618552 9.50638429 -5.54571278 7.31856917 -4 5 C-3.34 5 -2.68 5 -2 5 C-1.855625 4.360625 -1.71125 3.72125 -1.5625 3.0625 C-1 1 -1 1 0 0 Z " fill="#B3B2B1" transform="translate(871,530)"/>
<path d="M0 0 C0.66 0.33 1.32 0.66 2 1 C0.02 3.97 0.02 3.97 -2 7 C-2.33 6.34 -2.66 5.68 -3 5 C-3.99 4.67 -4.98 4.34 -6 4 C-4.02 2.68 -2.04 1.36 0 0 Z " fill="#B4B3B2" transform="translate(841,560)"/>
</svg>
